<svg width="21" height="21" viewBox="0 0 21 21" fill="none" xmlns="http://www.w3.org/2000/svg">
<g clip-path="url(#clip0_0_548)">
<path d="M10.7354 0.436308C10.7751 0.436392 10.8149 0.436476 10.8559 0.436563C11.4265 0.438503 11.9864 0.448304 12.5469 0.565702C12.585 0.573463 12.6231 0.581224 12.6623 0.58922C14.0465 0.878764 15.3886 1.40093 16.5313 2.24539C16.5305 2.22058 16.5296 2.19578 16.5288 2.17022C16.5255 2.05694 16.5235 1.94366 16.5215 1.83035C16.5202 1.79133 16.5189 1.7523 16.5175 1.7121C16.5144 1.4716 16.5265 1.33428 16.6875 1.15164C16.8567 0.998569 16.9951 0.970101 17.2162 0.980741C17.3692 1.00401 17.4706 1.04915 17.586 1.15164C17.7543 1.41879 17.7784 1.66981 17.8029 1.98065C17.8072 2.02985 17.8115 2.07904 17.816 2.12973C17.8249 2.23337 17.8335 2.33699 17.8417 2.44067C17.8522 2.57296 17.8638 2.70513 17.8756 2.8373C17.8869 2.9643 17.8974 3.09137 17.9079 3.21844C17.9121 3.26561 17.9163 3.31278 17.9206 3.36137C17.9602 3.87642 17.9602 3.87642 17.7739 4.11062C17.5294 4.30627 17.2759 4.34227 16.973 4.37842C16.9331 4.38345 16.8931 4.38849 16.852 4.39368C16.7677 4.40421 16.6833 4.41454 16.599 4.42468C16.4715 4.44006 16.3442 4.45622 16.2169 4.47249C15.0519 4.61798 15.0519 4.61798 14.8247 4.4866C14.6596 4.31698 14.61 4.17865 14.6001 3.94461C14.6059 3.75239 14.6396 3.64014 14.7735 3.49539C14.9544 3.35508 15.1512 3.34079 15.3716 3.31228C15.408 3.30722 15.4444 3.30216 15.4818 3.29695C15.5712 3.28458 15.6606 3.27261 15.75 3.26101C14.5809 2.0497 12.3072 1.68874 10.711 1.65945C9.85267 1.65633 8.99218 1.80279 8.1719 2.05008C8.12295 2.06443 8.07401 2.07878 8.02358 2.09356C5.85528 2.77058 4.04935 4.36477 2.97658 6.34695C2.96185 6.37417 2.94711 6.4014 2.93193 6.42944C2.36463 7.50036 2.00236 8.77146 1.99071 9.98572C1.99033 10.0189 1.98995 10.0521 1.98956 10.0863C1.98276 10.8329 1.99313 11.5522 2.15627 12.2845C2.16358 12.3178 2.1709 12.3512 2.17843 12.3856C2.2274 12.6021 2.28595 12.8146 2.35158 13.0266C2.36098 13.0573 2.37038 13.0879 2.38006 13.1195C2.79228 14.4371 3.51865 15.6106 4.47871 16.5973C4.53056 16.6507 4.58167 16.7048 4.63262 16.7591C4.87787 17.0153 5.15458 17.2283 5.43752 17.4407C5.47085 17.4659 5.47085 17.4659 5.50485 17.4916C7.35167 18.8775 9.69366 19.4614 11.978 19.1497C13.8464 18.8718 15.5458 18.0363 16.8988 16.7198C16.9522 16.668 17.0063 16.6169 17.0606 16.5659C17.3168 16.3207 17.5298 16.044 17.7422 15.761C17.7674 15.7277 17.7674 15.7277 17.7931 15.6937C18.6363 14.57 19.2086 13.2453 19.4219 11.8548C19.4301 11.8056 19.4383 11.7565 19.4468 11.7058C19.4957 11.3837 19.5136 11.0633 19.5223 10.7378C19.5393 10.2279 19.5393 10.2279 19.7124 10.0237C19.912 9.85818 20.0296 9.84562 20.2831 9.85022C20.4377 9.86678 20.5205 9.91221 20.6328 10.0188C20.7388 10.1666 20.765 10.2685 20.7656 10.4494C20.7658 10.4953 20.7661 10.5411 20.7663 10.5884C20.7658 10.6373 20.7652 10.6862 20.7647 10.7366C20.7641 10.8127 20.7641 10.8127 20.7635 10.8904C20.7299 13.0147 19.9099 15.0435 18.6016 16.6985C18.5699 16.739 18.5381 16.7796 18.5055 16.8213C18.0107 17.4292 17.4424 17.9994 16.8047 18.4563C16.7522 18.495 16.6996 18.5336 16.6471 18.5723C15.4242 19.4629 14.0352 20.0574 12.5469 20.3313C12.5156 20.3376 12.4843 20.3439 12.4521 20.3504C11.3558 20.5648 10.0468 20.5559 8.95315 20.3313C8.91359 20.3236 8.87404 20.3158 8.83329 20.3078C7.22811 19.9868 5.78532 19.3055 4.50002 18.3001C4.47896 18.2837 4.4579 18.2673 4.4362 18.2505C3.80182 17.7519 3.21312 17.1585 2.74221 16.5032C2.70847 16.4575 2.67469 16.4118 2.64089 16.3662C2.04935 15.5605 1.57739 14.6773 1.25783 13.7298C1.2417 13.682 1.2417 13.682 1.22524 13.6333C1.09875 13.2516 0.99983 12.8656 0.916035 12.4724C0.908271 12.4363 0.900507 12.4002 0.892508 12.363C0.763887 11.7299 0.735359 11.1075 0.737813 10.4632C0.737897 10.4234 0.737981 10.3836 0.738068 10.3426C0.740009 9.77137 0.752282 9.21304 0.867207 8.65164C0.878537 8.59324 0.878537 8.59324 0.890095 8.53367C1.18809 7.02553 1.80187 5.61329 2.74221 4.39383C2.7799 4.34488 2.7799 4.34488 2.81835 4.29495C3.36852 3.59454 4.00693 2.91924 4.73439 2.40164C4.75852 2.38422 4.78265 2.36679 4.8075 2.34884C6.01135 1.48321 7.35331 0.892732 8.80666 0.594999C8.83518 0.589098 8.86371 0.583197 8.89309 0.577118C9.50615 0.458676 10.1125 0.433936 10.7354 0.436308Z" fill="#49BCFF"/>
<path d="M13.0829 8.14452C13.2133 8.25794 13.2775 8.36815 13.3002 8.54125C13.3077 8.73674 13.2837 8.87628 13.1718 9.04219C12.9995 9.2016 12.8549 9.25727 12.6176 9.25688C12.4227 9.22249 12.2554 9.12166 12.0834 9.0277C11.7691 8.86445 11.3451 8.87365 11.0051 8.95903C10.5666 9.13136 10.2458 9.3998 10.047 9.82939C9.89561 10.2299 9.89804 10.6345 10.0468 11.0344C10.2743 11.5147 10.5897 11.7529 11.0747 11.945C11.4898 12.0224 11.8276 11.9824 12.1924 11.7723C12.4378 11.596 12.5435 11.3017 12.664 11.0344C12.6286 11.0356 12.6286 11.0356 12.5924 11.0369C12.4845 11.0401 12.3765 11.0421 12.2685 11.0441C12.2314 11.0455 12.1942 11.0468 12.1559 11.0481C11.9201 11.0514 11.7893 11.0344 11.6093 10.8781C11.4628 10.7114 11.4393 10.558 11.4421 10.3422C11.4649 10.1574 11.5754 10.0501 11.707 9.92842C11.8898 9.80505 12.0764 9.81667 12.2913 9.81551C12.3233 9.81528 12.3554 9.81506 12.3885 9.81483C12.4563 9.81446 12.5241 9.81421 12.5919 9.81406C12.695 9.81368 12.7981 9.81247 12.9012 9.81123C12.9673 9.81098 13.0333 9.81077 13.0994 9.81062C13.1299 9.81014 13.1605 9.80966 13.192 9.80916C13.4177 9.81007 13.6113 9.84602 13.7868 10.0006C14.011 10.303 13.987 10.638 13.9426 11.0034C13.8434 11.6177 13.5845 12.1651 13.1328 12.5969C13.1084 12.622 13.084 12.6471 13.0589 12.673C12.6175 13.1005 11.9867 13.2415 11.3898 13.2357C10.7423 13.2152 10.1976 12.9989 9.69528 12.5969C9.65374 12.5657 9.65374 12.5657 9.61135 12.5339C9.09238 12.1205 8.78642 11.4426 8.69186 10.7976C8.62648 9.97372 8.83439 9.26588 9.34372 8.6125C10.2436 7.55853 11.9519 7.30562 13.0829 8.14452Z" fill="#49BCFF"/>
<path d="M6.17965 7.79228C6.37042 7.95051 6.44148 8.11669 6.52556 8.34251C6.54552 8.39426 6.54552 8.39426 6.56589 8.44705C6.60698 8.55411 6.6473 8.66143 6.68746 8.76884C6.71134 8.83207 6.73523 8.89531 6.75912 8.95854C6.83128 9.15053 6.90222 9.34297 6.9731 9.53544C7.15135 10.0184 7.33168 10.5005 7.51662 10.9809C7.55084 11.07 7.58505 11.1591 7.61926 11.2482C7.66936 11.3786 7.71958 11.509 7.77019 11.6392C7.81725 11.7604 7.86388 11.8816 7.91045 12.0029C7.9245 12.0387 7.93855 12.0745 7.95302 12.1114C8.04908 12.3632 8.12932 12.5905 8.0522 12.8582C7.94577 13.0402 7.82962 13.1537 7.62496 13.222C7.43427 13.242 7.27922 13.2419 7.1025 13.1634C6.97078 13.0379 6.91144 12.9203 6.84371 12.7532C6.82624 12.7102 6.80876 12.6671 6.79076 12.6228C6.6484 12.2619 6.6484 12.2619 6.6484 12.1673C6.05543 12.1673 5.46246 12.1673 4.85152 12.1673C4.81285 12.2962 4.77418 12.4251 4.73433 12.5579C4.5622 13.0586 4.5622 13.0586 4.35073 13.187C4.15659 13.2667 3.94026 13.2441 3.74556 13.178C3.56586 13.0526 3.46091 12.9434 3.4143 12.7257C3.39707 12.5497 3.44091 12.406 3.50386 12.243C3.51591 12.2102 3.52796 12.1774 3.54037 12.1436C3.5859 12.021 3.63271 11.8988 3.67965 11.7767C3.69921 11.7254 3.71877 11.6742 3.73832 11.623C3.83104 11.3802 3.92414 11.1375 4.01799 10.8952C4.16762 10.5087 4.31564 10.1217 4.46181 9.73396C4.49524 9.64541 4.52867 9.55687 4.5621 9.46832C4.61128 9.33803 4.66039 9.20771 4.70928 9.07731C4.75499 8.95544 4.80094 8.83368 4.84694 8.71192C4.86031 8.67605 4.87368 8.64018 4.88745 8.60322C5.16118 7.88144 5.16118 7.88144 5.48873 7.70439C5.74718 7.63226 5.9461 7.66449 6.17965 7.79228ZM5.74996 9.86259C5.62585 10.0976 5.53241 10.3338 5.44722 10.5852C5.40533 10.7077 5.36343 10.8302 5.32027 10.9563C5.60386 10.9563 5.88746 10.9563 6.17965 10.9563C6.09333 10.6608 6.09333 10.6608 5.9912 10.3738C5.97326 10.3281 5.97326 10.3281 5.95496 10.2814C5.93687 10.236 5.93687 10.236 5.91842 10.1897C5.9059 10.158 5.89339 10.1262 5.8805 10.0935C5.85015 10.0164 5.8196 9.93951 5.78902 9.86259C5.77613 9.86259 5.76324 9.86259 5.74996 9.86259Z" fill="#49BCFF"/>
<path d="M16.0601 7.66466C16.1007 7.66459 16.1412 7.66451 16.1831 7.66444C16.2685 7.66438 16.354 7.66453 16.4395 7.66485C16.5699 7.66527 16.7003 7.66486 16.8306 7.66436C16.914 7.66441 16.9973 7.66451 17.0806 7.66466C17.1193 7.66451 17.1581 7.66435 17.198 7.66418C17.4612 7.66595 17.6843 7.66909 17.8911 7.84838C18.0602 8.04648 18.0718 8.16499 18.0669 8.41906C18.0504 8.57507 18.0077 8.65666 17.8985 8.76879C17.7046 8.88969 17.5544 8.90194 17.3336 8.89742C17.3027 8.89726 17.2718 8.89709 17.24 8.89692C17.1421 8.89627 17.0442 8.8948 16.9463 8.8933C16.8796 8.89271 16.8129 8.89218 16.7463 8.8917C16.5834 8.89051 16.4207 8.88822 16.2578 8.88598C16.2578 9.20824 16.2578 9.53051 16.2578 9.86254C16.3482 9.86073 16.4385 9.85891 16.5316 9.85705C16.6196 9.85583 16.7077 9.85488 16.7957 9.85396C16.8566 9.85317 16.9176 9.85211 16.9785 9.85075C17.0663 9.84884 17.1541 9.84797 17.242 9.84728C17.2825 9.84607 17.2825 9.84607 17.3238 9.84484C17.5207 9.84475 17.6291 9.89678 17.7813 10.0188C17.9198 10.1764 17.9496 10.3145 17.9458 10.5245C17.9269 10.708 17.8397 10.8301 17.7056 10.949C17.5207 11.0811 17.3836 11.0782 17.1581 11.0773C17.1323 11.0772 17.1065 11.0772 17.08 11.0771C16.998 11.0769 16.916 11.0764 16.834 11.0759C16.7783 11.0757 16.7225 11.0755 16.6668 11.0754C16.5305 11.075 16.3941 11.0742 16.2578 11.0735C16.2578 11.3829 16.2578 11.6922 16.2578 12.011C16.4018 12.0089 16.4018 12.0089 16.5487 12.0069C16.6421 12.0059 16.7356 12.0052 16.8291 12.0045C16.8938 12.004 16.9585 12.0032 17.0232 12.0021C17.1165 12.0007 17.2098 12 17.3031 11.9995C17.3461 11.9986 17.3461 11.9986 17.39 11.9977C17.5762 11.9976 17.7015 12.0296 17.8594 12.1282C18.0419 12.3304 18.0683 12.456 18.0658 12.7233C18.0465 12.9113 17.9556 13.0155 17.8179 13.1365C17.6852 13.2178 17.5751 13.2272 17.423 13.2288C17.3612 13.2296 17.3612 13.2296 17.2982 13.2303C17.2313 13.2308 17.2313 13.2308 17.1631 13.2312C17.1172 13.2315 17.0713 13.2319 17.024 13.2322C16.9267 13.2327 16.8294 13.2331 16.7321 13.2334C16.5838 13.2341 16.4355 13.2358 16.2872 13.2376C16.1926 13.238 16.098 13.2383 16.0035 13.2385C15.9372 13.2396 15.9372 13.2396 15.8697 13.2406C15.6281 13.24 15.3906 13.2357 15.2031 13.0657C15.0265 12.8293 15.0247 12.6271 15.0273 12.3382C15.027 12.2707 15.027 12.2707 15.0267 12.2018C15.0262 12.0535 15.0268 11.9052 15.0275 11.7569C15.0275 11.6537 15.0275 11.5504 15.0273 11.4471C15.0272 11.2309 15.0278 11.0147 15.0287 10.7984C15.0297 10.5488 15.0298 10.2992 15.0293 10.0496C15.0289 9.80896 15.0291 9.5683 15.0297 9.32763C15.0299 9.22545 15.0299 9.12327 15.0297 9.02108C15.0296 8.8783 15.0303 8.73555 15.0311 8.59277C15.0309 8.55058 15.0308 8.50838 15.0306 8.46491C15.0332 8.20067 15.0573 8.01619 15.252 7.82152C15.5073 7.65906 15.7664 7.66347 16.0601 7.66466Z" fill="#49BCFF"/>
</g>
<defs>
<clipPath id="clip0_0_548">
<rect width="20" height="20" fill="white" transform="translate(0.75 0.448486)"/>
</clipPath>
</defs>
</svg>
