<svg width="20" height="21" viewBox="0 0 20 21" fill="none" xmlns="http://www.w3.org/2000/svg">
<g clip-path="url(#clip0_0_536)">
<path d="M16.8506 10.9329C16.583 10.9329 16.3661 10.716 16.3661 10.4485C16.3661 10.181 16.583 9.96405 16.8506 9.96405H17.3626C17.2531 8.28291 16.5782 6.75375 15.5265 5.56493L15.1744 5.91712C15.0797 6.01173 14.9557 6.05907 14.8318 6.05907C14.7078 6.05907 14.5839 6.01173 14.4893 5.91718C14.3001 5.72802 14.3001 5.42129 14.4892 5.23213L14.8389 4.88237C13.6566 3.85321 12.1445 3.19409 10.4845 3.08594V3.59792C10.4845 3.86547 10.2676 4.08237 10 4.08237C9.73247 4.08237 9.51557 3.86547 9.51557 3.59792V3.08594C7.84937 3.19449 6.33227 3.85819 5.14802 4.89395L5.52823 5.27415C5.71738 5.46338 5.71738 5.77005 5.52823 5.95927C5.43361 6.05382 5.30957 6.10116 5.18567 6.10116C5.06169 6.10116 4.93772 6.05382 4.84311 5.95927L4.4619 5.57806C3.41678 6.765 2.74654 8.28917 2.63745 9.96405H3.20897C3.47651 9.96405 3.69341 10.181 3.69341 10.4485C3.69341 10.716 3.47651 10.9329 3.20897 10.9329H2.63745C2.7456 12.593 3.40472 14.1051 4.43388 15.2874L4.84304 14.8782C5.03227 14.689 5.33887 14.689 5.52809 14.8781C5.71732 15.0673 5.71732 15.374 5.52816 15.5632L5.11637 15.975C6.3052 17.0267 7.83435 17.7016 9.5155 17.8111V17.2395C9.5155 16.972 9.7324 16.7551 9.99994 16.7551C10.2675 16.7551 10.4844 16.972 10.4844 17.2395V17.8111C12.1593 17.702 13.6834 17.0317 14.8704 15.9866L14.4892 15.6054C14.3 15.4162 14.3 15.1095 14.4892 14.9203C14.6784 14.7312 14.9851 14.7312 15.1743 14.9203L15.5545 15.3005C16.5902 14.1162 17.254 12.5991 17.3625 10.9329H16.8506ZM13.2565 10.9329H10C9.73247 10.9329 9.51557 10.716 9.51557 10.4485V5.7623C9.51557 5.49476 9.73247 5.27786 10 5.27786C10.2676 5.27786 10.4845 5.49476 10.4845 5.7623V9.96412H13.2565C13.524 9.96412 13.741 10.181 13.741 10.4486C13.741 10.7161 13.524 10.9329 13.2565 10.9329Z" fill="#49BCFF"/>
<path d="M10 0.448486C4.48599 0.448486 0 4.93448 0 10.4485C0 15.9625 4.48599 20.4485 10 20.4485C15.514 20.4485 20 15.9625 20 10.4485C20 4.93448 15.514 0.448486 10 0.448486ZM10 18.7962C5.39704 18.7962 1.65226 15.0514 1.65226 10.4485C1.65226 5.84552 5.39704 2.10074 10 2.10074C14.603 2.10074 18.3477 5.84552 18.3477 10.4485C18.3477 15.0514 14.603 18.7962 10 18.7962Z" fill="#49BCFF"/>
</g>
<defs>
<clipPath id="clip0_0_536">
<rect width="20" height="20" fill="white" transform="translate(0 0.448486)"/>
</clipPath>
</defs>
</svg>
