<svg width="20" height="21" viewBox="0 0 20 21" fill="none" xmlns="http://www.w3.org/2000/svg">
<path d="M10 10.4485C12.2091 10.4485 14 8.65762 14 6.44848C14 4.23934 12.2091 2.44849 10 2.44849C7.79086 2.44849 6 4.23934 6 6.44848C6 8.65762 7.79086 10.4485 10 10.4485Z" fill="#49BCFF"/>
<path d="M17.4074 18.4485H14.894V16.2746C14.894 16.1811 14.8457 16.0964 14.7676 16.0349C14.6896 15.9736 14.5813 15.9357 14.462 15.9357C14.2234 15.9357 14.0301 16.0874 14.0301 16.2744V18.4483H5.96989V16.2744C5.96989 16.1809 5.92156 16.0962 5.84325 16.0347C5.76518 15.9734 5.65713 15.9355 5.53793 15.9355C5.29927 15.9355 5.10597 16.0872 5.10597 16.2742V18.4481H2.5923C1.47239 18.4481 0.700168 17.5626 1.11255 16.7459C2.69391 13.6131 6.07893 11.4485 9.99999 11.4485C13.9208 11.4485 17.3058 13.6133 18.8874 16.7459C19.2998 17.5626 18.5278 18.4481 17.4077 18.4481L17.4074 18.4485Z" fill="#49BCFF"/>
</svg>
